# 3ds Max Wavefront OBJ Exporter v0.97b - (c)2007 guruware
# File Created: 15.01.2016 21:18:13

#
# object Box06
#

v  -63.5531 0.0000 6.9139
v  -63.5531 0.0000 -6.9139
v  63.5531 0.0000 -6.9139
v  63.5531 0.0000 6.9139
v  -63.5531 2.4359 6.9139
v  63.5531 2.4359 6.9139
v  63.5531 2.4359 -6.9139
v  -63.5531 2.4359 -6.9139
v  -63.5531 0.0000 -11.8833
v  -63.5531 0.0000 -25.7111
v  63.5531 0.0000 -25.7111
v  63.5531 0.0000 -11.8833
v  -63.5531 2.4359 -11.8833
v  63.5531 2.4359 -11.8833
v  63.5531 2.4359 -25.7111
v  -63.5531 2.4359 -25.7111
v  -63.5531 0.0000 -30.6805
v  -63.5531 0.0000 -44.5084
v  63.5531 0.0000 -44.5084
v  63.5531 0.0000 -30.6805
v  -63.5531 2.4359 -30.6805
v  63.5531 2.4359 -30.6805
v  63.5531 2.4359 -44.5084
v  -63.5531 2.4359 -44.5084
v  -63.5531 0.0000 -68.2750
v  -63.5531 0.0000 -82.1028
v  63.5531 0.0000 -82.1028
v  63.5531 0.0000 -68.2750
v  -63.5531 2.4359 -68.2750
v  63.5531 2.4359 -68.2750
v  63.5531 2.4359 -82.1028
v  -63.5531 2.4359 -82.1028
v  -63.5531 0.0000 -87.0722
v  -63.5531 0.0000 -100.9000
v  63.5531 0.0000 -100.9000
v  63.5531 0.0000 -87.0722
v  -63.5531 2.4359 -87.0722
v  63.5531 2.4359 -87.0722
v  63.5531 2.4359 -100.9000
v  -63.5531 2.4359 -100.9000
v  -63.5531 0.0000 -49.4777
v  -63.5531 0.0000 -63.3056
v  63.5531 0.0000 -63.3056
v  63.5531 0.0000 -49.4777
v  -63.5531 2.4359 -49.4777
v  63.5531 2.4359 -49.4777
v  63.5531 2.4359 -63.3056
v  -63.5531 2.4359 -63.3056
v  -63.5531 -9.7786 -100.9000
v  -55.5197 0.0000 -100.9000
v  -55.5197 -9.7786 -100.9000
v  -63.5531 -9.7786 6.9139
v  -55.5197 -9.7786 6.9139
v  -55.5197 0.0000 6.9139
v  55.5197 -9.7786 -100.9000
v  55.5197 0.0000 -100.9000
v  63.5531 -9.7786 -100.9000
v  55.5197 -9.7786 6.9139
v  63.5531 -9.7786 6.9139
v  55.5197 0.0000 6.9139
v  -3.9616 -9.7786 -100.9000
v  -3.9616 0.0000 -100.9000
v  4.0719 0.0000 -100.9000
v  4.0719 -9.7786 -100.9000
v  -3.9616 -9.7786 6.9139
v  4.0719 -9.7786 6.9139
v  4.0719 0.0000 6.9139
v  -3.9616 0.0000 6.9139
v  -63.5531 -9.7786 -6.9139
v  63.5531 -9.7786 -6.9139
v  -63.5531 -12.2145 -6.9139
v  63.5531 -12.2145 -6.9139
v  63.5531 -12.2145 6.9139
v  -63.5531 -12.2145 6.9139
v  -63.5531 -9.7786 -25.7111
v  -63.5531 -9.7786 -11.8833
v  63.5531 -9.7786 -11.8833
v  63.5531 -9.7786 -25.7111
v  -63.5531 -12.2145 -25.7111
v  63.5531 -12.2145 -25.7111
v  63.5531 -12.2145 -11.8833
v  -63.5531 -12.2145 -11.8833
v  -63.5531 -9.7786 -44.5084
v  -63.5531 -9.7786 -30.6805
v  63.5531 -9.7786 -30.6805
v  63.5531 -9.7786 -44.5084
v  -63.5531 -12.2145 -44.5084
v  63.5531 -12.2145 -44.5084
v  63.5531 -12.2145 -30.6805
v  -63.5531 -12.2145 -30.6805
v  -63.5531 -9.7786 -82.1028
v  -63.5531 -9.7786 -68.2750
v  63.5531 -9.7786 -68.2750
v  63.5531 -9.7786 -82.1028
v  -63.5531 -12.2145 -82.1028
v  63.5531 -12.2145 -82.1028
v  63.5531 -12.2145 -68.2750
v  -63.5531 -12.2145 -68.2750
v  -63.5531 -9.7786 -87.0722
v  63.5531 -9.7786 -87.0722
v  -63.5531 -12.2145 -100.9000
v  63.5531 -12.2145 -100.9000
v  63.5531 -12.2145 -87.0722
v  -63.5531 -12.2145 -87.0722
v  -63.5531 -9.7786 -63.3056
v  -63.5531 -9.7786 -49.4777
v  63.5531 -9.7786 -49.4777
v  63.5531 -9.7786 -63.3056
v  -63.5531 -12.2145 -63.3056
v  63.5531 -12.2145 -63.3056
v  63.5531 -12.2145 -49.4777
v  -63.5531 -12.2145 -49.4777
# 112 vertices

vn 0.0000 -1.0000 -0.0000
vn 0.0000 1.0000 -0.0000
vn 0.0000 0.0000 1.0000
vn 1.0000 0.0000 -0.0000
vn 0.0000 0.0000 -1.0000
vn -1.0000 0.0000 -0.0000
vn 0.0000 1.0000 0.0000
# 7 vertex normals

vt 0.6080 0.0119 0.0000
vt 0.6080 0.0721 0.0000
vt 0.0366 0.0721 0.0000
vt 0.0366 0.0119 0.0000
vt 0.0379 0.4064 0.0000
vt 0.6093 0.4064 0.0000
vt 0.6093 0.4666 0.0000
vt 0.0379 0.4667 0.0000
vt 0.0379 0.3884 0.0000
vt 0.6094 0.3884 0.0000
vt 0.6274 0.4064 0.0000
vt 0.6274 0.4667 0.0000
vt 0.6093 0.4847 0.0000
vt 0.0380 0.4847 0.0000
vt 0.0197 0.4667 0.0000
vt 0.0197 0.4065 0.0000
vt 0.6080 0.0737 0.0000
vt 0.6080 0.1339 0.0000
vt 0.0366 0.1339 0.0000
vt 0.0366 0.0737 0.0000
vt 0.0380 0.5047 0.0000
vt 0.6094 0.5048 0.0000
vt 0.6094 0.5650 0.0000
vt 0.0380 0.5649 0.0000
vt 0.0379 0.4867 0.0000
vt 0.6093 0.4867 0.0000
vt 0.6276 0.5048 0.0000
vt 0.6276 0.5651 0.0000
vt 0.6093 0.5830 0.0000
vt 0.0379 0.5830 0.0000
vt 0.0200 0.5649 0.0000
vt 0.0200 0.5047 0.0000
vt 0.6080 0.1363 0.0000
vt 0.6080 0.1965 0.0000
vt 0.0366 0.1965 0.0000
vt 0.0366 0.1363 0.0000
vt 0.0379 0.6032 0.0000
vt 0.6094 0.6031 0.0000
vt 0.6094 0.6634 0.0000
vt 0.0379 0.6634 0.0000
vt 0.0379 0.5851 0.0000
vt 0.6093 0.5851 0.0000
vt 0.6276 0.6031 0.0000
vt 0.6276 0.6633 0.0000
vt 0.6093 0.6814 0.0000
vt 0.0379 0.6814 0.0000
vt 0.0198 0.6634 0.0000
vt 0.0198 0.6032 0.0000
vt 0.6080 0.2619 0.0000
vt 0.6080 0.3221 0.0000
vt 0.0366 0.3221 0.0000
vt 0.0366 0.2619 0.0000
vt 0.0379 0.8110 0.0000
vt 0.6094 0.8109 0.0000
vt 0.6094 0.8712 0.0000
vt 0.0379 0.8712 0.0000
vt 0.0379 0.7929 0.0000
vt 0.6093 0.7929 0.0000
vt 0.6276 0.8109 0.0000
vt 0.6276 0.8711 0.0000
vt 0.6093 0.8893 0.0000
vt 0.0379 0.8893 0.0000
vt 0.0198 0.8712 0.0000
vt 0.0198 0.8110 0.0000
vt 0.6080 0.3253 0.0000
vt 0.6080 0.3855 0.0000
vt 0.0366 0.3855 0.0000
vt 0.0366 0.3253 0.0000
vt 0.0379 0.9116 0.0000
vt 0.6094 0.9116 0.0000
vt 0.6094 0.9718 0.0000
vt 0.0379 0.9719 0.0000
vt 0.0379 0.8936 0.0000
vt 0.6093 0.8936 0.0000
vt 0.6276 0.9116 0.0000
vt 0.6276 0.9718 0.0000
vt 0.6093 0.9899 0.0000
vt 0.0379 0.9899 0.0000
vt 0.0198 0.9719 0.0000
vt 0.0198 0.9117 0.0000
vt 0.6080 0.1991 0.0000
vt 0.6080 0.2593 0.0000
vt 0.0366 0.2593 0.0000
vt 0.0366 0.1991 0.0000
vt 0.0379 0.7095 0.0000
vt 0.6094 0.7096 0.0000
vt 0.6094 0.7698 0.0000
vt 0.0379 0.7698 0.0000
vt 0.0379 0.6916 0.0000
vt 0.6093 0.6916 0.0000
vt 0.6275 0.7095 0.0000
vt 0.6275 0.7698 0.0000
vt 0.6093 0.7879 0.0000
vt 0.0379 0.7879 0.0000
vt 0.0198 0.7697 0.0000
vt 0.0198 0.7095 0.0000
vt 0.8750 0.3719 0.0000
vt 0.8188 0.3719 0.0000
vt 0.8188 0.3276 0.0000
vt 0.8749 0.3276 0.0000
vt 0.8751 0.9435 0.0000
vt 0.8753 0.9879 0.0000
vt 0.8187 0.9879 0.0000
vt 0.8188 0.9435 0.0000
vt 0.9279 0.3720 0.0000
vt 0.9279 0.9434 0.0000
vt 0.9824 0.3720 0.0000
vt 0.9824 0.9434 0.0000
vt 0.7660 0.3720 0.0000
vt 0.7660 0.9434 0.0000
# 110 texture coords

g Box06
s 2
f 1/1/1 2/2/1 3/3/1 4/4/1 
s 4
f 5/5/2 6/6/2 7/7/2 8/8/2 
s 8
f 1/9/3 4/10/3 6/6/3 5/5/3 
s 16
f 4/11/4 3/12/4 7/7/4 6/6/4 
s 32
f 3/13/5 2/14/5 8/8/5 7/7/5 
s 64
f 2/15/6 1/16/6 5/5/6 8/8/6 
s 2
f 9/17/1 10/18/1 11/19/1 12/20/1 
s 4
f 13/21/2 14/22/2 15/23/2 16/24/2 
s 8
f 9/25/3 12/26/3 14/22/3 13/21/3 
s 16
f 12/27/4 11/28/4 15/23/4 14/22/4 
s 32
f 11/29/5 10/30/5 16/24/5 15/23/5 
s 64
f 10/31/6 9/32/6 13/21/6 16/24/6 
s 2
f 17/33/1 18/34/1 19/35/1 20/36/1 
s 4
f 21/37/2 22/38/2 23/39/2 24/40/2 
s 8
f 17/41/3 20/42/3 22/38/3 21/37/3 
s 16
f 20/43/4 19/44/4 23/39/4 22/38/4 
s 32
f 19/45/5 18/46/5 24/40/5 23/39/5 
s 64
f 18/47/6 17/48/6 21/37/6 24/40/6 
s 2
f 25/49/1 26/50/1 27/51/1 28/52/1 
s 4
f 29/53/2 30/54/2 31/55/2 32/56/2 
s 8
f 25/57/3 28/58/3 30/54/3 29/53/3 
s 16
f 28/59/4 27/60/4 31/55/4 30/54/4 
s 32
f 27/61/5 26/62/5 32/56/5 31/55/5 
s 64
f 26/63/6 25/64/6 29/53/6 32/56/6 
s 2
f 33/65/1 34/66/1 35/67/1 36/68/1 
s 4
f 37/69/2 38/70/2 39/71/2 40/72/2 
s 8
f 33/73/3 36/74/3 38/70/3 37/69/3 
s 16
f 36/75/4 35/76/4 39/71/4 38/70/4 
s 32
f 35/77/5 34/78/5 40/72/5 39/71/5 
s 64
f 34/79/6 33/80/6 37/69/6 40/72/6 
s 2
f 41/81/1 42/82/1 43/83/1 44/84/1 
s 4
f 45/85/2 46/86/2 47/87/2 48/88/2 
s 8
f 41/89/3 44/90/3 46/86/3 45/85/3 
s 16
f 44/91/4 43/92/4 47/87/4 46/86/4 
s 32
f 43/93/5 42/94/5 48/88/5 47/87/5 
s 64
f 42/95/6 41/96/6 45/85/6 48/88/6 
s 2
f 49/97/5 34/98/5 50/99/5 51/100/5 
s 4
f 52/101/3 53/102/3 54/103/3 1/104/3 
s 8
f 49/97/1 51/105/1 53/106/1 52/101/1 
s 16
f 51/105/4 50/107/4 54/108/4 53/106/4 
s 32
f 50/109/2 34/98/2 1/104/2 54/110/2 
s 64
f 34/98/6 49/97/6 52/101/6 1/104/6 
s 2
f 55/97/5 56/98/5 35/99/5 57/100/5 
s 4
f 58/101/3 59/102/3 4/103/3 60/104/3 
s 8
f 55/97/1 57/105/1 59/106/1 58/101/1 
s 16
f 57/105/4 35/107/4 4/108/4 59/106/4 
s 32
f 35/109/7 56/98/7 60/104/7 4/110/7 
s 64
f 56/98/6 55/97/6 58/101/6 60/104/6 
s 2
f 61/97/5 62/98/5 63/99/5 64/100/5 
s 4
f 65/101/3 66/102/3 67/103/3 68/104/3 
s 8
f 61/97/1 64/105/1 66/106/1 65/101/1 
s 16
f 64/105/4 63/107/4 67/108/4 66/106/4 
s 32
f 63/109/7 62/98/7 68/104/7 67/110/7 
s 64
f 62/98/6 61/97/6 65/101/6 68/104/6 
s 2
f 69/1/7 52/2/7 59/3/7 70/4/7 
s 4
f 71/5/1 72/6/1 73/7/1 74/8/1 
s 8
f 69/9/5 70/10/5 72/6/5 71/5/5 
s 16
f 70/11/4 59/12/4 73/7/4 72/6/4 
s 32
f 59/13/3 52/14/3 74/8/3 73/7/3 
s 64
f 52/15/6 69/16/6 71/5/6 74/8/6 
s 2
f 75/17/7 76/18/7 77/19/7 78/20/7 
s 4
f 79/21/1 80/22/1 81/23/1 82/24/1 
s 8
f 75/25/5 78/26/5 80/22/5 79/21/5 
s 16
f 78/27/4 77/28/4 81/23/4 80/22/4 
s 32
f 77/29/3 76/30/3 82/24/3 81/23/3 
s 64
f 76/31/6 75/32/6 79/21/6 82/24/6 
s 2
f 83/33/2 84/34/2 85/35/2 86/36/2 
s 4
f 87/37/1 88/38/1 89/39/1 90/40/1 
s 8
f 83/41/5 86/42/5 88/38/5 87/37/5 
s 16
f 86/43/4 85/44/4 89/39/4 88/38/4 
s 32
f 85/45/3 84/46/3 90/40/3 89/39/3 
s 64
f 84/47/6 83/48/6 87/37/6 90/40/6 
s 2
f 91/49/2 92/50/2 93/51/2 94/52/2 
s 4
f 95/53/1 96/54/1 97/55/1 98/56/1 
s 8
f 91/57/5 94/58/5 96/54/5 95/53/5 
s 16
f 94/59/4 93/60/4 97/55/4 96/54/4 
s 32
f 93/61/3 92/62/3 98/56/3 97/55/3 
s 64
f 92/63/6 91/64/6 95/53/6 98/56/6 
s 2
f 49/65/2 99/66/2 100/67/2 57/68/2 
s 4
f 101/69/1 102/70/1 103/71/1 104/72/1 
s 8
f 49/73/5 57/74/5 102/70/5 101/69/5 
s 16
f 57/75/4 100/76/4 103/71/4 102/70/4 
s 32
f 100/77/3 99/78/3 104/72/3 103/71/3 
s 64
f 99/79/6 49/80/6 101/69/6 104/72/6 
s 2
f 105/81/2 106/82/2 107/83/2 108/84/2 
s 4
f 109/85/1 110/86/1 111/87/1 112/88/1 
s 8
f 105/89/5 108/90/5 110/86/5 109/85/5 
s 16
f 108/91/4 107/92/4 111/87/4 110/86/4 
s 32
f 107/93/3 106/94/3 112/88/3 111/87/3 
s 64
f 106/95/6 105/96/6 109/85/6 112/88/6 
# 90 polygons

