# 3ds Max Wavefront OBJ Exporter v0.97b - (c)2007 guruware
# File Created: 15.01.2016 21:52:33

#
# object Box01
#

v  570.8970 26.7724 -2.6556
v  602.7802 27.3739 -2.6556
v  593.7744 -106.9852 -2.6556
v  570.8970 -106.8751 -2.6556
v  616.3614 26.4227 -2.6556
v  626.5886 27.5476 -2.6556
v  624.4337 -107.2240 -2.6556
v  616.6517 -104.8522 -2.6556
v  661.8257 27.8112 -2.6556
v  700.6805 27.9933 -2.6556
v  697.7860 -107.1571 -2.6556
v  661.0368 -107.2254 -2.6556
v  707.2901 27.1393 -2.6556
v  738.7672 28.0931 -2.6556
v  718.8007 -106.8985 -2.6556
v  707.2901 -105.1154 -2.6556
v  593.7744 -106.9852 8.3762
v  602.7802 27.3739 8.3762
v  570.8970 26.7724 8.3762
v  570.8970 -106.8751 8.3762
v  624.4338 -107.2240 8.3762
v  626.5886 27.5476 8.3762
v  616.3614 26.4227 8.3762
v  616.6517 -104.8522 8.3762
v  697.7860 -107.1572 8.3762
v  700.6805 27.9933 8.3762
v  661.8257 27.8112 8.3762
v  661.0368 -107.2254 8.3762
v  718.8007 -106.8985 8.3762
v  738.7672 28.0931 8.3762
v  707.2901 27.1393 8.3762
v  707.2901 -105.1154 8.3762
v  750.9769 -107.2908 -2.6556
v  752.7545 27.3375 -2.6556
v  752.7545 27.3375 8.3762
v  750.9769 -107.2908 8.3762
# 36 vertices

vn 0.0000 0.0000 -1.0000
vn -0.0000 0.0000 -1.0000
vn 0.0000 -0.0000 1.0000
vn 0.9999 -0.0132 -0.0000
vn 0.0118 0.9999 0.0000
vn 0.0539 0.9985 0.0000
vn 0.0619 0.9981 0.0000
vn 0.0491 0.9988 0.0000
vn -0.0585 0.9983 0.0000
vn -0.0061 1.0000 0.0000
vn 0.0255 0.9997 0.0000
vn -0.0198 0.9998 0.0000
vn -1.0000 0.0000 -0.0000
vn -0.0189 0.9998 0.0000
# 14 vertex normals

vt 0.0006 0.9737 0.0000
vt 0.1156 0.9753 0.0000
vt 0.0920 0.6177 0.0000
vt 0.0006 0.6180 0.0000
vt 0.1457 0.9728 0.0000
vt 0.1778 0.9757 0.0000
vt 0.1722 0.6171 0.0000
vt 0.1465 0.6233 0.0000
vt 0.2700 0.9764 0.0000
vt 0.3715 0.9769 0.0000
vt 0.3640 0.6173 0.0000
vt 0.2679 0.6171 0.0000
vt 0.3940 0.9747 0.0000
vt 0.4711 0.9772 0.0000
vt 0.4189 0.6180 0.0000
vt 0.3929 0.6227 0.0000
vt 0.0238 0.9737 0.0000
vt 0.0238 0.6180 0.0000
vt 0.5434 0.6169 0.0000
vt 0.5421 0.9752 0.0000
vt 0.5155 0.9752 0.0000
vt 0.5168 0.6169 0.0000
vt 0.4711 0.9988 0.0000
vt 0.5155 0.9772 0.0000
vt 0.5155 0.9988 0.0000
vt 0.3715 0.9988 0.0000
vt 0.3715 0.9772 0.0000
vt 0.3929 0.9772 0.0000
vt 0.3929 0.9988 0.0000
vt 0.1778 0.9988 0.0000
vt 0.1778 0.9772 0.0000
vt 0.2700 0.9772 0.0000
vt 0.2700 0.9988 0.0000
vt 0.1156 0.9988 0.0000
vt 0.1156 0.9772 0.0000
vt 0.1511 0.9772 0.0000
vt 0.1511 0.9988 0.0000
vt 0.0322 0.9988 0.0000
vt 0.0322 0.9772 0.0000
# 39 texture coords

g Box01
s 2
f 1/1/1 2/2/1 3/3/1 4/4/1 
f 5/5/1 6/6/1 7/7/1 8/8/1 
f 9/9/1 10/10/1 11/11/1 12/12/1 
f 13/13/1 14/14/1 15/15/2 16/16/1 
s 4
f 17/3/3 18/2/3 19/17/3 20/18/3 
f 21/7/3 22/6/3 23/5/3 24/8/3 
f 25/11/3 26/10/3 27/9/3 28/12/3 
f 29/15/3 30/14/3 31/13/3 32/16/3 
s 16
f 33/19/4 34/20/4 35/21/4 36/22/4 
s 32
f 14/23/5 30/14/5 35/24/6 34/25/6 
f 10/26/7 26/27/7 31/28/8 13/29/8 
f 6/30/9 22/31/9 27/32/10 9/33/10 
f 2/34/11 18/35/11 23/36/12 5/37/12 
s 64
f 1/1/13 4/4/13 20/18/13 19/17/13 
s 2
f 2/2/1 5/5/1 8/8/1 3/3/1 
f 6/6/1 9/9/1 12/12/1 7/7/1 
f 13/13/1 16/16/1 11/11/1 10/10/1 
f 34/20/1 33/19/1 15/15/2 14/14/1 
s 4
f 24/8/3 23/5/3 18/2/3 17/3/3 
f 28/12/3 27/9/3 22/6/3 21/7/3 
f 32/16/3 31/13/3 26/10/3 25/11/3 
f 36/22/3 35/21/3 30/14/3 29/15/3 
s 32
f 13/29/8 31/28/8 30/14/5 14/23/5 
f 9/33/10 27/32/10 26/27/7 10/26/7 
f 5/37/12 23/36/12 22/31/9 6/30/9 
f 1/38/14 19/39/14 18/35/11 2/34/11 
# 26 polygons

#
# object Box02
#

v  758.0710 -106.5409 -5.1321
v  758.0710 -9.3750 -5.1321
v  787.7660 -9.3750 -5.1321
v  789.7454 -106.0373 -5.1321
v  817.4609 -8.9801 -5.1321
v  817.4609 -106.5409 -5.1321
v  847.1559 -8.5752 -5.1321
v  846.5368 -106.2842 -5.1321
v  876.5940 -9.1326 -5.1321
v  876.8508 -106.5409 -5.1321
v  758.0710 -106.5409 3.1028
v  789.7454 -106.0373 3.1028
v  787.7660 -9.3750 3.1028
v  758.0710 -9.3750 3.1028
v  817.4609 -106.5409 3.1028
v  817.4609 -8.9801 3.1028
v  846.5368 -106.2842 3.1028
v  847.1559 -8.5752 3.1028
v  876.8508 -106.5409 3.1028
v  876.5940 -9.1326 3.1028
# 20 vertices

vn 0.0000 0.0000 -1.0000
vn 0.0000 -0.0000 1.0000
vn 1.0000 0.0021 0.0000
vn 0.0240 0.9997 0.0000
vn 0.0034 1.0000 0.0000
vn -0.0171 0.9999 0.0000
vn -0.0084 1.0000 0.0000
vn 0.0000 1.0000 0.0000
vn -1.0000 0.0000 -0.0000
# 9 vertex normals

vt 0.9738 0.0018 0.0000
vt 0.9720 0.3454 0.0000
vt 0.8878 0.3439 0.0000
vt 0.8878 0.0018 0.0000
vt 0.8036 0.3439 0.0000
vt 0.8036 0.0018 0.0000
vt 0.7194 0.3439 0.0000
vt 0.7194 0.0018 0.0000
vt 0.6389 0.3439 0.0000
vt 0.6389 0.0018 0.0000
vt 0.9939 0.0186 0.0000
vt 0.9939 0.3456 0.0000
vt 0.9727 0.3454 0.0000
vt 0.9744 0.0186 0.0000
vt 0.9720 0.3687 0.0000
vt 0.8878 0.3687 0.0000
vt 0.8878 0.3445 0.0000
vt 0.9720 0.3460 0.0000
vt 0.8026 0.3687 0.0000
vt 0.8026 0.3445 0.0000
vt 0.7183 0.3687 0.0000
vt 0.7183 0.3445 0.0000
vt 0.6389 0.3687 0.0000
vt 0.6389 0.3445 0.0000
vt 0.6171 0.3439 0.0000
vt 0.6171 0.0159 0.0000
vt 0.6380 0.0159 0.0000
vt 0.6380 0.3439 0.0000
# 28 texture coords

g Box02
s 2
f 37/40/15 38/41/15 39/42/15 40/43/15 
f 40/43/15 39/42/15 41/44/15 42/45/15 
f 42/45/15 41/44/15 43/46/15 44/47/15 
f 44/47/15 43/46/15 45/48/15 46/49/15 
s 4
f 47/49/16 48/47/16 49/46/16 50/48/16 
f 48/47/16 51/45/16 52/44/16 49/46/16 
f 51/45/16 53/43/16 54/42/16 52/44/16 
f 53/43/16 55/40/16 56/41/16 54/42/16 
s 16
f 46/50/17 45/51/17 56/52/17 55/53/17 
s 32
f 45/54/18 43/55/19 54/56/19 56/57/18 
f 43/55/19 41/58/20 52/59/20 54/56/19 
f 41/58/20 39/60/21 49/61/21 52/59/20 
f 39/60/21 38/62/22 50/63/22 49/61/21 
s 64
f 38/64/23 37/65/23 47/66/23 50/67/23 
# 14 polygons

#
# object Box03
#

v  891.9634 -109.2817 -0.0000
v  891.9634 -30.4058 -0.0000
v  1114.2202 -30.4058 -0.0000
v  1114.2202 -109.2817 -0.0000
v  891.9634 -109.2817 11.2680
v  1114.2202 -109.2817 11.2680
v  1114.2202 -30.4058 11.2680
v  891.9634 -30.4058 11.2680
# 8 vertices

vn 0.0000 0.0000 -1.0000
vn 0.0000 -0.0000 1.0000
vn 1.0000 0.0000 -0.0000
vn 0.0000 1.0000 0.0000
vn -1.0000 0.0000 -0.0000
# 5 vertex normals

vt 0.5825 0.0016 0.0000
vt 0.5825 0.1987 0.0000
vt 0.0269 0.1987 0.0000
vt 0.0269 0.0016 0.0000
vt 0.6133 0.0024 0.0000
vt 0.6133 0.1983 0.0000
vt 0.5829 0.1983 0.0000
vt 0.5829 0.0024 0.0000
vt 0.0269 0.1994 0.0000
vt 0.5825 0.1994 0.0000
vt 0.5825 0.2241 0.0000
vt 0.0269 0.2241 0.0000
vt 0.0003 0.1981 0.0000
vt 0.0003 0.0023 0.0000
vt 0.0266 0.0023 0.0000
vt 0.0266 0.1981 0.0000
# 16 texture coords

g Box03
s 2
f 57/68/24 58/69/24 59/70/24 60/71/24 
s 4
f 61/71/25 62/68/25 63/69/25 64/70/25 
s 16
f 60/72/26 59/73/26 63/74/26 62/75/26 
s 32
f 59/76/27 58/77/27 64/78/27 63/79/27 
s 64
f 58/80/28 57/81/28 61/82/28 64/83/28 
# 5 polygons

#
# object Plane01
#

v  1123.8734 -106.3932 -0.9950
v  1173.3545 -106.3932 -0.9950
v  1173.3545 -67.9351 -0.9950
v  1123.8734 -67.9351 -0.9950
v  1222.8357 -106.3932 -0.9950
v  1222.8357 -67.9351 -0.9950
v  1272.3169 -106.3932 -0.9950
v  1272.3169 -67.9351 -0.9950
v  1321.7980 -106.3932 -0.9950
v  1321.7980 -67.9351 -0.9950
v  1173.3545 -29.4770 -0.9950
v  1123.8734 -29.4770 -0.9950
v  1222.8357 -29.4770 -0.9950
v  1272.3169 -29.4770 -0.9950
v  1321.7980 -29.4770 -0.9950
v  1173.3545 8.9812 -0.9950
v  1123.8734 8.9812 -0.9950
v  1222.8357 8.9812 -0.9950
v  1272.3169 8.9812 -0.9950
v  1321.7980 8.9812 -0.9950
v  1173.3545 47.4393 -0.9950
v  1123.8734 47.4393 -0.9950
v  1222.8357 47.4393 -0.9950
v  1272.3169 47.4393 -0.9950
v  1321.7980 47.4393 -0.9950
v  1123.8734 -106.3932 -1.2561
v  1123.8734 -67.9351 -1.2561
v  1173.3545 -67.9351 -1.2561
v  1173.3545 -106.3932 -1.2561
v  1222.8357 -67.9351 -1.2561
v  1222.8357 -106.3932 -1.2561
v  1272.3169 -67.9351 -1.2561
v  1272.3169 -106.3932 -1.2561
v  1321.7980 -67.9351 -1.2561
v  1321.7980 -106.3932 -1.2561
v  1123.8734 -29.4770 -1.2561
v  1173.3545 -29.4770 -1.2561
v  1222.8357 -29.4770 -1.2561
v  1272.3169 -29.4770 -1.2561
v  1321.7980 -29.4770 -1.2561
v  1123.8734 8.9812 -1.2561
v  1173.3545 8.9812 -1.2561
v  1222.8357 8.9812 -1.2561
v  1272.3169 8.9812 -1.2561
v  1321.7980 8.9812 -1.2561
v  1123.8734 47.4393 -1.2561
v  1173.3545 47.4393 -1.2561
v  1222.8357 47.4393 -1.2561
v  1272.3169 47.4393 -1.2561
v  1321.7980 47.4393 -1.2561
# 50 vertices

vn 0.0000 -0.0000 1.0000
vn 0.0000 0.0000 -1.0000
# 2 vertex normals

vt 0.0031 0.2247 0.0000
vt 0.1278 0.2247 0.0000
vt 0.1278 0.3199 0.0000
vt 0.0031 0.3199 0.0000
vt 0.2525 0.2247 0.0000
vt 0.2525 0.3199 0.0000
vt 0.3773 0.2247 0.0000
vt 0.3773 0.3199 0.0000
vt 0.4999 0.2247 0.0000
vt 0.4999 0.3199 0.0000
vt 0.1278 0.4171 0.0000
vt 0.0031 0.4171 0.0000
vt 0.2525 0.4171 0.0000
vt 0.3773 0.4171 0.0000
vt 0.4999 0.4171 0.0000
vt 0.1278 0.5143 0.0000
vt 0.0031 0.5143 0.0000
vt 0.2525 0.5143 0.0000
vt 0.3773 0.5143 0.0000
vt 0.4999 0.5143 0.0000
vt 0.1278 0.6116 0.0000
vt 0.0031 0.6116 0.0000
vt 0.2525 0.6116 0.0000
vt 0.3773 0.6116 0.0000
vt 0.4999 0.6116 0.0000
# 25 texture coords

g Plane01
s 1
f 65/84/29 66/85/29 67/86/29 68/87/29 
f 66/85/29 69/88/29 70/89/29 67/86/29 
f 69/88/29 71/90/29 72/91/29 70/89/29 
f 71/90/29 73/92/29 74/93/29 72/91/29 
f 68/87/29 67/86/29 75/94/29 76/95/29 
f 67/86/29 70/89/29 77/96/29 75/94/29 
f 70/89/29 72/91/29 78/97/29 77/96/29 
f 72/91/29 74/93/29 79/98/29 78/97/29 
f 76/95/29 75/94/29 80/99/29 81/100/29 
f 75/94/29 77/96/29 82/101/29 80/99/29 
f 77/96/29 78/97/29 83/102/29 82/101/29 
f 78/97/29 79/98/29 84/103/29 83/102/29 
f 81/100/29 80/99/29 85/104/29 86/105/29 
f 80/99/29 82/101/29 87/106/29 85/104/29 
f 82/101/29 83/102/29 88/107/29 87/106/29 
f 83/102/29 84/103/29 89/108/29 88/107/29 
f 90/84/30 91/87/30 92/86/30 93/85/30 
f 93/85/30 92/86/30 94/89/30 95/88/30 
f 95/88/30 94/89/30 96/91/30 97/90/30 
f 97/90/30 96/91/30 98/93/30 99/92/30 
f 91/87/30 100/95/30 101/94/30 92/86/30 
f 92/86/30 101/94/30 102/96/30 94/89/30 
f 94/89/30 102/96/30 103/97/30 96/91/30 
f 96/91/30 103/97/30 104/98/30 98/93/30 
f 100/95/30 105/100/30 106/99/30 101/94/30 
f 101/94/30 106/99/30 107/101/30 102/96/30 
f 102/96/30 107/101/30 108/102/30 103/97/30 
f 103/97/30 108/102/30 109/103/30 104/98/30 
f 105/100/30 110/105/30 111/104/30 106/99/30 
f 106/99/30 111/104/30 112/106/30 107/101/30 
f 107/101/30 112/106/30 113/107/30 108/102/30 
f 108/102/30 113/107/30 114/108/30 109/103/30 
# 32 polygons

#
# object Box04
#

v  365.8690 -103.7999 -5.1321
v  365.8690 -6.6339 -5.1321
v  406.6687 -6.6339 -5.1321
v  409.3882 -103.2962 -5.1321
v  447.4684 -6.2390 -5.1321
v  447.4684 -103.7999 -5.1321
v  488.2682 -5.8341 -5.1321
v  487.4175 -103.5431 -5.1321
v  528.7150 -6.3915 -5.1321
v  529.0679 -103.7999 -5.1321
v  365.8690 -103.7999 3.1028
v  409.3882 -103.2962 3.1028
v  406.6687 -6.6339 3.1028
v  365.8690 -6.6339 3.1028
v  447.4684 -103.7999 3.1028
v  447.4684 -6.2390 3.1028
v  487.4175 -103.5431 3.1028
v  488.2682 -5.8341 3.1028
v  529.0679 -103.7999 3.1028
v  528.7150 -6.3915 3.1028
# 20 vertices

vn -0.0000 0.0000 -1.0000
vn 0.0000 -0.0000 1.0000
vn 1.0000 0.0021 0.0000
vn 0.0240 0.9997 0.0000
vn 0.0034 1.0000 0.0000
vn -0.0171 0.9999 0.0000
vn -0.0084 1.0000 0.0000
vn 0.0000 1.0000 0.0000
vn -1.0000 -0.0000 -0.0000
# 9 vertex normals

vt 0.9750 0.3742 0.0000
vt 0.9729 0.6388 0.0000
vt 0.8718 0.6372 0.0000
vt 0.8718 0.3742 0.0000
vt 0.7707 0.6372 0.0000
vt 0.7707 0.3742 0.0000
vt 0.6697 0.6372 0.0000
vt 0.6697 0.3742 0.0000
vt 0.5731 0.6372 0.0000
vt 0.5731 0.3742 0.0000
vt 0.9991 0.3757 0.0000
vt 0.9991 0.6389 0.0000
vt 0.9736 0.6388 0.0000
vt 0.9757 0.3757 0.0000
vt 0.9729 0.6620 0.0000
vt 0.8718 0.6620 0.0000
vt 0.8718 0.6378 0.0000
vt 0.9729 0.6394 0.0000
vt 0.7695 0.6620 0.0000
vt 0.7695 0.6378 0.0000
vt 0.6685 0.6620 0.0000
vt 0.6685 0.6378 0.0000
vt 0.5731 0.6620 0.0000
vt 0.5731 0.6378 0.0000
vt 0.5470 0.6372 0.0000
vt 0.5470 0.3758 0.0000
vt 0.5720 0.3758 0.0000
vt 0.5720 0.6372 0.0000
# 28 texture coords

g Box04
s 2
f 115/109/31 116/110/31 117/111/31 118/112/31 
f 118/112/31 117/111/31 119/113/31 120/114/31 
f 120/114/31 119/113/31 121/115/31 122/116/31 
f 122/116/31 121/115/31 123/117/31 124/118/31 
s 4
f 125/118/32 126/116/32 127/115/32 128/117/32 
f 126/116/32 129/114/32 130/113/32 127/115/32 
f 129/114/32 131/112/32 132/111/32 130/113/32 
f 131/112/32 133/109/32 134/110/32 132/111/32 
s 16
f 124/119/33 123/120/33 134/121/33 133/122/33 
s 32
f 123/123/34 121/124/35 132/125/35 134/126/34 
f 121/124/35 119/127/36 130/128/36 132/125/35 
f 119/127/36 117/129/37 127/130/37 130/128/36 
f 117/129/37 116/131/38 128/132/38 127/130/37 
s 64
f 116/133/39 115/134/39 125/135/39 128/136/39 
# 14 polygons

#
# object Box05
#

v  1331.6777 -105.2962 -5.1321
v  1331.6777 -10.6197 -5.1321
v  1368.5194 -10.6197 -5.1321
v  1370.9751 -104.8055 -5.1321
v  1405.3611 -10.2349 -5.1321
v  1405.3611 -105.2962 -5.1321
v  1442.2028 -9.8404 -5.1321
v  1441.4346 -105.0460 -5.1321
v  1478.7257 -10.3835 -5.1321
v  1479.0444 -105.2962 -5.1321
v  1331.6777 -105.2962 3.1028
v  1370.9751 -104.8055 3.1028
v  1368.5194 -10.6197 3.1028
v  1331.6777 -10.6197 3.1028
v  1405.3611 -105.2962 3.1028
v  1405.3611 -10.2349 3.1028
v  1441.4346 -105.0460 3.1028
v  1442.2028 -9.8404 3.1028
v  1479.0444 -105.2962 3.1028
v  1478.7257 -10.3835 3.1028
# 20 vertices

vn 0.0000 0.0000 -1.0000
vn 0.0000 -0.0000 1.0000
vn 1.0000 0.0021 0.0000
vn 0.0240 0.9997 0.0000
vn 0.0034 1.0000 0.0000
vn -0.0171 0.9999 0.0000
vn -0.0084 1.0000 0.0000
vn 0.0000 1.0000 0.0000
vn -1.0000 0.0000 -0.0000
# 9 vertex normals

vt 0.9856 0.6641 0.0000
vt 0.9834 0.9817 0.0000
vt 0.8784 0.9802 0.0000
vt 0.8784 0.6641 0.0000
vt 0.7723 0.9802 0.0000
vt 0.7723 0.6641 0.0000
vt 0.6662 0.9802 0.0000
vt 0.6662 0.6641 0.0000
vt 0.5648 0.9802 0.0000
vt 0.5648 0.6641 0.0000
vt 0.9986 0.6645 0.0000
vt 0.9986 0.9819 0.0000
vt 0.9842 0.9817 0.0000
vt 0.9864 0.6645 0.0000
vt 0.9834 0.9987 0.0000
vt 0.8784 0.9987 0.0000
vt 0.8784 0.9808 0.0000
vt 0.9834 0.9823 0.0000
vt 0.7710 0.9987 0.0000
vt 0.7710 0.9808 0.0000
vt 0.6649 0.9987 0.0000
vt 0.6649 0.9808 0.0000
vt 0.5648 0.9987 0.0000
vt 0.5648 0.9808 0.0000
vt 0.5459 0.9802 0.0000
vt 0.5459 0.6646 0.0000
vt 0.5636 0.6646 0.0000
vt 0.5636 0.9802 0.0000
# 28 texture coords

g Box05
s 2
f 135/137/40 136/138/40 137/139/40 138/140/40 
f 138/140/40 137/139/40 139/141/40 140/142/40 
f 140/142/40 139/141/40 141/143/40 142/144/40 
f 142/144/40 141/143/40 143/145/40 144/146/40 
s 4
f 145/146/41 146/144/41 147/143/41 148/145/41 
f 146/144/41 149/142/41 150/141/41 147/143/41 
f 149/142/41 151/140/41 152/139/41 150/141/41 
f 151/140/41 153/137/41 154/138/41 152/139/41 
s 16
f 144/147/42 143/148/42 154/149/42 153/150/42 
s 32
f 143/151/43 141/152/44 152/153/44 154/154/43 
f 141/152/44 139/155/45 150/156/45 152/153/44 
f 139/155/45 137/157/46 147/158/46 150/156/45 
f 137/157/46 136/159/47 148/160/47 147/158/46 
s 64
f 136/161/48 135/162/48 145/163/48 148/164/48 
# 14 polygons

