# 3ds Max Wavefront OBJ Exporter v0.97b - (c)2007 guruware
# File Created: 11.01.2016 21:18:25

#
# object Box01
#

v  -0.3208 0.0000 0.2770
v  -0.3332 0.0000 0.2736
v  -0.3373 0.0000 0.2634
v  -0.3373 0.0000 -0.2770
v  0.3373 0.0000 -0.2770
v  0.3373 0.0000 0.2634
v  0.3332 0.0000 0.2736
v  0.3208 0.0000 0.2770
v  0.3373 2.2748 -0.2770
v  -0.3373 2.2748 -0.2770
v  -0.3373 2.2748 0.2634
v  0.3373 2.2748 0.2634
v  -0.3343 0.0044 0.2634
v  -0.3332 0.0051 0.2736
v  -0.3208 0.0051 0.2770
v  -0.3337 0.0029 -0.2741
v  0.3208 0.0051 0.2770
v  0.3332 0.0051 0.2736
v  0.3343 0.0044 0.2634
v  0.3338 0.0029 -0.2741
v  -0.3329 2.2712 0.2634
v  -0.3337 2.2719 -0.2741
v  0.3338 2.2719 -0.2741
v  0.3330 2.2712 0.2634
v  -0.3348 1.6843 0.2484
v  0.3347 1.6843 0.2484
v  0.3347 1.6953 0.2484
v  -0.3348 1.6953 0.2484
v  -0.3348 1.6843 -0.2749
v  0.3347 1.6843 -0.2749
v  0.3347 1.6953 -0.2749
v  -0.3348 1.6953 -0.2749
v  0.3332 2.2714 0.2736
v  -0.3332 2.2714 0.2736
v  0.3208 2.2612 0.2770
v  -0.3208 2.2612 0.2770
v  -0.2844 0.0374 0.2770
v  -0.2844 2.2238 0.2770
v  0.2844 2.2238 0.2770
v  0.2844 0.0374 0.2770
v  -0.3334 2.2716 0.2612
v  0.3334 2.2716 0.2612
v  0.3300 2.2688 0.2701
v  -0.3300 2.2688 0.2701
v  0.3198 0.0000 0.2720
v  0.3201 2.2606 0.2720
v  0.3288 0.0000 0.2700
v  -0.3200 2.2606 0.2720
v  -0.3198 0.0000 0.2720
v  -0.3288 0.0000 0.2700
v  0.3315 0.0000 0.2618
v  -0.3315 0.0000 0.2618
v  -0.2844 2.2238 0.2719
v  -0.2844 0.0374 0.2719
v  0.2844 0.0374 0.2719
v  0.2844 2.2238 0.2719
# 56 vertices

vn 0.0000 -1.0000 -0.0000
vn 0.0000 1.0000 -0.0000
vn 1.0000 0.0000 -0.0000
vn 0.0000 0.0000 -1.0000
vn -1.0000 0.0000 -0.0000
vn -0.0395 0.9991 -0.0150
vn 0.0216 0.9977 -0.0649
vn -0.0082 0.9998 -0.0160
vn -0.0007 1.0000 -0.0039
vn -0.0003 0.9986 -0.0530
vn 0.0004 0.9995 -0.0315
vn 0.0006 1.0000 -0.0034
vn 0.0000 -1.0000 -0.0012
vn -1.0000 -0.0001 0.0005
vn -1.0000 -0.0005 -0.0012
vn -1.0000 -0.0004 -0.0009
vn -1.0000 0.0000 0.0009
vn 0.0000 0.0000 1.0000
vn 1.0000 -0.0004 0.0005
vn 1.0000 0.0000 -0.0012
vn 1.0000 -0.0001 -0.0009
vn 1.0000 -0.0005 0.0009
vn -0.1602 0.0000 0.9871
vn -0.3162 0.0000 0.9487
vn -0.9582 0.1409 0.2491
vn -0.8726 0.4861 0.0482
vn -0.9265 0.3521 0.1331
vn -0.9487 0.0000 0.3162
vn 0.9071 0.3495 0.2344
vn 0.9959 0.0000 0.0901
vn 0.9792 0.1381 0.1488
vn 0.8388 0.4672 0.2796
vn 0.3162 0.0000 0.9487
vn 0.1602 0.0000 0.9871
vn 0.5135 0.5135 0.6874
vn 0.6816 0.6814 -0.2666
vn -0.6815 0.6815 -0.2665
vn -0.5135 0.5135 0.6874
vn 0.1212 0.1212 0.9852
vn 0.1458 -0.4139 0.8986
vn 0.7071 0.0000 0.7071
vn -0.7071 0.0000 0.7071
vn -0.1458 -0.4139 0.8986
vn -0.1212 0.1212 0.9852
vn 0.8944 0.0000 -0.4472
vn -0.8945 -0.0003 -0.4471
vn -0.0071 0.0072 -0.9999
vn 0.0074 0.0069 -0.9999
vn -0.5096 -0.5094 -0.6934
vn 0.5097 -0.5093 -0.6934
vn -0.1129 -0.4862 -0.8665
vn -0.0846 -0.0845 -0.9928
vn -0.7077 0.0004 -0.7066
vn 0.0846 -0.0845 -0.9928
vn 0.1130 -0.4862 -0.8665
vn 0.7077 0.0003 -0.7066
vn -0.4755 0.0004 -0.8797
vn 0.4756 -0.0000 -0.8797
vn -0.0013 0.0010 -1.0000
vn -0.0012 -0.0008 -1.0000
vn 0.0012 -0.0008 -1.0000
vn 0.0013 0.0010 -1.0000
vn -1.0000 -0.0000 -0.0000
vn -0.0000 1.0000 -0.0000
# 64 vertex normals

vt 0.9793 0.8027 0.0000
vt 0.9827 0.8038 0.0000
vt 0.9839 0.8072 0.0000
vt 0.9839 0.9891 0.0000
vt 0.7974 0.9891 0.0000
vt 0.7974 0.8072 0.0000
vt 0.7985 0.8038 0.0000
vt 0.8020 0.8027 0.0000
vt 0.5921 0.8354 0.0000
vt 0.4038 0.8354 0.0000
vt 0.4038 0.0158 0.0000
vt 0.5921 0.0158 0.0000
vt 0.7775 0.8354 0.0000
vt 0.7775 0.0158 0.0000
vt 0.2031 0.8354 0.0000
vt 0.0148 0.8354 0.0000
vt 0.0148 0.0157 0.0000
vt 0.2031 0.0157 0.0000
vt 0.7833 0.5751 0.0000
vt 0.9973 0.5751 0.0000
vt 0.9973 0.5817 0.0000
vt 0.7833 0.5817 0.0000
vt 0.7877 0.5873 0.0000
vt 0.9954 0.5873 0.0000
vt 0.9954 0.7949 0.0000
vt 0.7877 0.7949 0.0000
vt 0.4025 0.8342 0.0000
vt 0.2043 0.8342 0.0000
vt 0.3988 0.8305 0.0000
vt 0.3988 0.0157 0.0000
vt 0.4025 0.0157 0.0000
vt 0.2043 0.0157 0.0000
vt 0.2080 0.0157 0.0000
vt 0.2080 0.8305 0.0000
vt 0.2188 0.0292 0.0000
vt 0.2188 0.8171 0.0000
vt 0.3880 0.8171 0.0000
vt 0.3880 0.0292 0.0000
# 38 texture coords

g Box01
s 2
f 1/1/1 2/2/1 3/3/1 4/4/1 
f 1/1/1 4/4/1 5/5/1 6/6/1 
f 1/1/1 6/6/1 7/7/1 8/8/1 
f 9/4/2 10/5/2 11/6/2 12/3/2 
s 16
f 9/9/3 12/10/3 6/11/3 5/12/3 
s 32
f 10/13/4 9/9/4 5/12/4 4/14/4 
s 64
f 11/15/5 10/16/5 4/17/5 3/18/5 
s 2
f 13/3/6 14/2/7 15/1/8 16/4/9 
f 15/1/8 17/8/2 18/7/10 19/6/11 
f 15/1/8 19/6/11 20/5/12 16/4/9 
f 21/6/13 22/5/13 23/4/13 24/3/13 
s 16
f 19/11/14 24/10/15 23/9/16 20/12/17 
s 32
f 20/12/18 23/9/18 22/13/18 16/14/18 
s 64
f 16/17/19 22/16/20 21/15/21 13/18/22 
s 1
f 15/1/23 14/2/24 2/2/24 1/1/23 
s 4
f 14/2/25 13/3/26 3/3/27 2/2/28 
f 19/6/29 18/7/30 7/7/31 6/6/32 
s 1
f 18/7/33 17/8/34 8/8/34 7/7/33 
f 17/8/34 15/1/23 1/1/23 8/8/34 
f 21/6/18 24/3/18 12/3/18 11/6/18 
f 24/10/18 19/11/18 6/11/18 12/10/18 
f 13/18/18 21/15/18 11/15/18 3/18/18 
s 4
f 25/19/18 26/20/18 27/21/18 28/22/18 
s 8
f 29/23/1 30/24/1 26/25/1 25/26/1 
s 32
f 31/23/2 32/24/2 28/25/2 27/26/2 
s 128
f 33/27/35 12/10/36 11/15/37 34/28/38 
f 33/27/35 35/29/39 8/30/40 7/31/41 
f 2/32/42 1/33/43 36/34/44 34/28/38 
f 35/29/39 33/27/35 34/28/38 36/34/44 
f 12/10/36 33/27/35 7/31/41 6/11/45 
f 3/18/46 2/32/42 34/28/38 11/15/37 
f 37/35/18 38/36/18 36/34/44 1/33/43 
f 35/29/39 39/37/18 40/38/18 8/30/40 
f 35/29/39 36/34/44 38/36/18 39/37/18 
f 1/33/43 8/30/40 40/38/18 37/35/18 
f 41/15/47 42/10/48 43/27/49 44/28/50 
f 45/30/51 46/29/52 43/27/49 47/31/53 
f 48/34/54 49/33/55 50/32/56 44/28/50 
f 44/28/50 43/27/49 46/29/52 48/34/54 
f 47/31/53 43/27/49 42/10/48 51/11/57 
f 44/28/50 50/32/56 52/18/58 41/15/47 
f 48/34/54 53/36/59 54/35/60 49/33/55 
f 55/38/61 56/37/62 46/29/52 45/30/51 
f 53/36/59 48/34/54 46/29/52 56/37/62 
f 55/38/61 45/30/51 49/33/55 54/35/60 
f 42/10/48 41/15/47 11/15/37 12/10/36 
s 1
f 45/30/1 47/31/1 7/31/1 8/30/1 
f 50/32/1 49/33/1 1/33/1 2/32/1 
f 47/31/1 51/11/1 6/11/1 7/31/1 
s 128
f 51/11/57 42/10/48 12/10/36 6/11/45 
f 41/15/47 52/18/58 3/18/46 11/15/37 
s 1
f 52/18/1 50/32/1 2/32/1 3/18/1 
s off
f 54/35/3 53/36/3 38/36/3 37/35/3 
f 56/37/63 55/38/63 40/38/63 39/37/63 
f 53/36/1 56/37/1 39/37/1 38/36/1 
f 55/38/64 54/35/64 37/35/64 40/38/64 
s 128
f 49/33/55 45/30/51 8/30/40 1/33/43 
# 57 polygons

#
# object Object02
#

v  0.2844 0.0374 0.2770
v  0.2844 2.2238 0.2770
v  -0.2844 2.2238 0.2770
v  -0.2844 0.0374 0.2770
v  -0.2844 2.2238 0.2719
v  0.2844 2.2238 0.2719
v  0.2844 0.0374 0.2719
v  -0.2844 0.0374 0.2719
# 8 vertices

vn 0.0000 0.0000 1.0000
vn -0.0000 0.0000 -1.0000
vn -1.0000 -0.0000 0.0000
vn 0.0000 -1.0000 -0.0000
vn 1.0000 0.0000 -0.0000
vn 0.0000 1.0000 -0.0000
# 6 vertex normals

vt 0.3880 0.0292 0.0000
vt 0.3880 0.8171 0.0000
vt 0.2188 0.8171 0.0000
vt 0.2188 0.0292 0.0000
# 4 texture coords

g Object02
s 4
f 57/39/65 58/40/65 59/41/65 60/42/65 
f 61/41/66 62/40/66 63/39/66 64/42/66 
s 1
f 61/41/67 64/42/67 60/42/67 59/41/67 
s 2
f 64/42/68 63/39/68 57/39/68 60/42/68 
s 1
f 63/39/69 62/40/69 58/40/69 57/39/69 
s 2
f 62/40/70 61/41/70 59/41/70 58/40/70 
# 6 polygons

