# 3ds Max Wavefront OBJ Exporter v0.97b - (c)2007 guruware
# File Created: 13.01.2016 21:34:11

#
# object Cylinder01
#

v  21.1014 0.0000 -0.0000
v  19.8288 0.0000 -7.2171
v  22.7604 14.5200 -8.2887
v  24.2333 14.5098 -0.0000
v  16.1646 0.0000 -13.5637
v  18.5425 14.5421 -15.5601
v  10.5507 0.0000 -18.2743
v  12.1097 14.5284 -20.9687
v  3.6642 0.0000 -20.7808
v  4.2087 14.5052 -23.8643
v  -3.6642 0.0000 -20.7808
v  -4.2087 14.5052 -23.8643
v  -10.5507 0.0000 -18.2743
v  -12.1097 14.5284 -20.9687
v  -16.1646 0.0000 -13.5637
v  -18.5425 14.5421 -15.5601
v  -19.8288 0.0000 -7.2171
v  -22.7604 14.5200 -8.2887
v  -21.1014 0.0000 -0.0000
v  -24.2333 14.5098 -0.0000
v  -19.8288 0.0000 7.2171
v  -22.7604 14.5200 8.2887
v  -16.1646 0.0000 13.5637
v  -18.5425 14.5421 15.5601
v  -10.5507 0.0000 18.2743
v  -12.1097 14.5284 20.9686
v  -3.6642 0.0000 20.7808
v  -4.2087 14.5052 23.8643
v  3.6642 0.0000 20.7808
v  4.2087 14.5052 23.8643
v  10.5507 0.0000 18.2743
v  12.1097 14.5284 20.9687
v  16.1646 0.0000 13.5637
v  18.5425 14.5421 15.5601
v  19.8288 0.0000 7.2171
v  22.7604 14.5200 8.2887
v  24.2885 29.3764 -8.8403
v  25.8473 29.3764 -0.0000
v  19.8002 29.3764 -16.6143
v  12.9236 29.3764 -22.3844
v  4.4883 29.3764 -25.4546
v  -4.4883 29.3764 -25.4546
v  -12.9236 29.3764 -22.3844
v  -19.8002 29.3764 -16.6143
v  -24.2885 29.3764 -8.8403
v  -25.8473 29.3764 -0.0000
v  -24.2885 29.3764 8.8403
v  -19.8002 29.3764 16.6143
v  -12.9236 29.3764 22.3844
v  -4.4883 29.3764 25.4546
v  4.4883 29.3764 25.4546
v  12.9236 29.3764 22.3844
v  19.8002 29.3764 16.6143
v  24.2885 29.3764 8.8403
v  24.2885 44.0647 -8.8403
v  25.8473 44.0647 -0.0000
v  19.8002 44.0647 -16.6143
v  12.9236 44.0647 -22.3844
v  4.4883 44.0647 -25.4546
v  -4.4883 44.0647 -25.4546
v  -12.9236 44.0646 -22.3844
v  -19.8002 44.0647 -16.6143
v  -24.2885 44.0647 -8.8403
v  -25.8473 44.0647 -0.0000
v  -24.2885 44.0647 8.8403
v  -19.8002 44.0647 16.6143
v  -12.9236 44.0647 22.3844
v  -4.4883 44.0647 25.4546
v  4.4883 44.0647 25.4546
v  12.9236 44.0647 22.3844
v  19.8002 44.0647 16.6143
v  24.2885 44.0647 8.8403
v  22.7604 58.9211 -8.2887
v  24.2333 58.9313 -0.0000
v  18.5425 58.8990 -15.5601
v  12.1097 58.9127 -20.9687
v  4.2087 58.9358 -23.8643
v  -4.2087 58.9359 -23.8643
v  -12.1097 58.9127 -20.9687
v  -18.5425 58.8990 -15.5601
v  -22.7604 58.9211 -8.2887
v  -24.2333 58.9313 -0.0000
v  -22.7604 58.9211 8.2887
v  -18.5425 58.8990 15.5601
v  -12.1097 58.9127 20.9686
v  -4.2087 58.9358 23.8643
v  4.2087 58.9358 23.8643
v  12.1097 58.9127 20.9687
v  18.5425 58.8990 15.5601
v  22.7604 58.9211 8.2887
v  19.8288 73.4411 -7.2171
v  21.1014 73.4411 -0.0000
v  16.1646 73.4411 -13.5637
v  10.5507 73.4411 -18.2743
v  3.6642 73.4411 -20.7808
v  -3.6642 73.4411 -20.7808
v  -10.5507 73.4411 -18.2743
v  -16.1646 73.4411 -13.5637
v  -19.8288 73.4411 -7.2171
v  -21.1014 73.4411 -0.0000
v  -19.8288 73.4411 7.2171
v  -16.1646 73.4411 13.5637
v  -10.5507 73.4411 18.2743
v  -3.6642 73.4411 20.7808
v  3.6642 73.4411 20.7808
v  10.5507 73.4411 18.2743
v  16.1646 73.4411 13.5637
v  19.8288 73.4411 7.2171
v  20.1504 0.0000 -0.0000
v  18.9352 0.0000 -6.8918
v  15.4361 0.0000 -12.9524
v  10.0752 0.0000 -17.4508
v  3.4991 0.0000 -19.8443
v  -3.4991 0.0000 -19.8443
v  -10.0752 0.0000 -17.4508
v  -15.4361 0.0000 -12.9524
v  -18.9352 0.0000 -6.8918
v  -20.1504 0.0000 -0.0000
v  -18.9352 0.0000 6.8918
v  -15.4361 0.0000 12.9524
v  -10.0752 0.0000 17.4508
v  -3.4991 0.0000 19.8443
v  3.4991 0.0000 19.8443
v  10.0752 0.0000 17.4508
v  15.4361 0.0000 12.9524
v  18.9352 0.0000 6.8919
v  18.9352 73.4411 -6.8918
v  20.1504 73.4411 -0.0000
v  15.4361 73.4411 -12.9524
v  10.0752 73.4411 -17.4508
v  3.4991 73.4411 -19.8443
v  -3.4991 73.4411 -19.8443
v  -10.0752 73.4411 -17.4508
v  -15.4361 73.4411 -12.9524
v  -18.9352 73.4411 -6.8918
v  -20.1504 73.4411 -0.0000
v  -18.9352 73.4411 6.8918
v  -15.4361 73.4411 12.9524
v  -10.0752 73.4411 17.4508
v  -3.4991 73.4411 19.8443
v  3.4991 73.4411 19.8443
v  10.0752 73.4411 17.4508
v  15.4361 73.4411 12.9524
v  18.9352 73.4411 6.8919
v  17.0716 70.0239 -6.2136
v  18.1672 70.0239 -0.0000
v  13.9169 70.0239 -11.6777
v  9.0836 70.0239 -15.7333
v  3.1547 70.0239 -17.8912
v  -3.1547 70.0239 -17.8912
v  -9.0836 70.0239 -15.7333
v  -13.9169 70.0239 -11.6777
v  -17.0716 70.0239 -6.2136
v  -18.1672 70.0239 -0.0000
v  -17.0716 70.0239 6.2135
v  -13.9169 70.0239 11.6776
v  -9.0836 70.0239 15.7333
v  -3.1547 70.0239 17.8912
v  3.1547 70.0239 17.8912
v  9.0836 70.0239 15.7333
v  13.9169 70.0239 11.6777
v  17.0716 70.0239 6.2136
v  18.1672 3.8474 -0.0000
v  17.0716 3.8474 -6.2136
v  13.9169 3.8474 -11.6777
v  9.0836 3.8474 -15.7333
v  3.1547 3.8474 -17.8912
v  -3.1547 3.8474 -17.8912
v  -9.0836 3.8474 -15.7333
v  -13.9169 3.8474 -11.6777
v  -17.0716 3.8474 -6.2136
v  -18.1672 3.8474 -0.0000
v  -17.0716 3.8474 6.2135
v  -13.9169 3.8474 11.6776
v  -9.0836 3.8474 15.7333
v  -3.1547 3.8474 17.8912
v  3.1547 3.8474 17.8912
v  9.0836 3.8474 15.7333
v  13.9169 3.8474 11.6777
v  17.0716 3.8474 6.2136
# 180 vertices

vn 0.9776 -0.2107 -0.0003
vn 0.9187 -0.2097 -0.3348
vn 0.9271 -0.1591 -0.3392
vn 0.9873 -0.1588 0.0000
vn 0.7493 -0.2090 -0.6284
vn 0.7560 -0.1588 -0.6350
vn 0.4892 -0.2100 -0.8465
vn 0.4951 -0.1584 -0.8543
vn 0.1697 -0.2110 -0.9626
vn 0.1726 -0.1586 -0.9721
vn -0.1702 -0.2105 -0.9627
vn -0.1725 -0.1591 -0.9721
vn -0.4891 -0.2093 -0.8468
vn -0.4951 -0.1591 -0.8542
vn -0.7488 -0.2093 -0.6289
vn -0.7560 -0.1585 -0.6350
vn -0.9186 -0.2105 -0.3346
vn -0.9273 -0.1584 -0.3393
vn -0.9776 -0.2107 0.0003
vn -0.9873 -0.1588 -0.0000
vn -0.9187 -0.2097 0.3348
vn -0.9271 -0.1591 0.3392
vn -0.7493 -0.2090 0.6284
vn -0.7560 -0.1588 0.6350
vn -0.4892 -0.2100 0.8465
vn -0.4951 -0.1584 0.8543
vn -0.1697 -0.2110 0.9626
vn -0.1726 -0.1586 0.9721
vn 0.1702 -0.2105 0.9627
vn 0.1725 -0.1591 0.9721
vn 0.4891 -0.2093 0.8468
vn 0.4951 -0.1591 0.8542
vn 0.7488 -0.2093 0.6289
vn 0.7560 -0.1585 0.6350
vn 0.9186 -0.2105 0.3346
vn 0.9273 -0.1584 0.3393
vn 0.9383 -0.0540 -0.3416
vn 0.9985 -0.0539 0.0001
vn 0.7648 -0.0545 -0.6420
vn 0.4993 -0.0545 -0.8647
vn 0.1736 -0.0540 -0.9833
vn -0.1734 -0.0537 -0.9834
vn -0.4994 -0.0542 -0.8647
vn -0.7650 -0.0546 -0.6418
vn -0.9382 -0.0543 -0.3417
vn -0.9985 -0.0539 -0.0001
vn -0.9383 -0.0540 0.3416
vn -0.7648 -0.0545 0.6420
vn -0.4993 -0.0545 0.8647
vn -0.1736 -0.0540 0.9833
vn 0.1734 -0.0537 0.9834
vn 0.4994 -0.0542 0.8647
vn 0.7650 -0.0546 0.6418
vn 0.9382 -0.0543 0.3417
vn 0.9382 0.0543 -0.3417
vn 0.9985 0.0539 -0.0001
vn 0.7650 0.0546 -0.6418
vn 0.4994 0.0542 -0.8647
vn 0.1734 0.0537 -0.9834
vn -0.1736 0.0540 -0.9833
vn -0.4993 0.0545 -0.8647
vn -0.7648 0.0545 -0.6420
vn -0.9383 0.0540 -0.3416
vn -0.9985 0.0539 0.0001
vn -0.9382 0.0543 0.3417
vn -0.7650 0.0546 0.6418
vn -0.4994 0.0542 0.8647
vn -0.1734 0.0537 0.9834
vn 0.1736 0.0540 0.9833
vn 0.4993 0.0545 0.8647
vn 0.7648 0.0545 0.6420
vn 0.9383 0.0540 0.3416
vn 0.9273 0.1584 -0.3393
vn 0.9873 0.1588 -0.0000
vn 0.7560 0.1585 -0.6350
vn 0.4951 0.1591 -0.8542
vn 0.1725 0.1591 -0.9721
vn -0.1726 0.1586 -0.9721
vn -0.4951 0.1584 -0.8543
vn -0.7560 0.1588 -0.6350
vn -0.9271 0.1591 -0.3392
vn -0.9873 0.1588 0.0000
vn -0.9273 0.1584 0.3393
vn -0.7560 0.1585 0.6350
vn -0.4951 0.1591 0.8542
vn -0.1725 0.1591 0.9721
vn 0.1726 0.1586 0.9721
vn 0.4951 0.1584 0.8543
vn 0.7560 0.1588 0.6350
vn 0.9271 0.1591 0.3392
vn 0.9186 0.2105 -0.3346
vn 0.9776 0.2107 0.0003
vn 0.7488 0.2093 -0.6289
vn 0.4891 0.2093 -0.8468
vn 0.1702 0.2105 -0.9627
vn -0.1697 0.2110 -0.9626
vn -0.4892 0.2100 -0.8465
vn -0.7493 0.2090 -0.6284
vn -0.9187 0.2097 -0.3348
vn -0.9776 0.2107 -0.0003
vn -0.9186 0.2105 0.3346
vn -0.7488 0.2093 0.6289
vn -0.4891 0.2093 0.8468
vn -0.1702 0.2105 0.9627
vn 0.1697 0.2110 0.9626
vn 0.4892 0.2100 0.8465
vn 0.7493 0.2090 0.6284
vn 0.9187 0.2097 0.3348
vn 0.0000 -1.0000 -0.0000
vn 0.0000 1.0000 0.0000
vn -0.0000 1.0000 -0.0000
vn 0.0000 1.0000 -0.0000
vn -0.8649 0.5019 0.0000
vn -0.8127 0.5019 0.2958
vn -0.6626 0.5019 0.5559
vn -0.4324 0.5019 0.7490
vn -0.1502 0.5019 0.8518
vn 0.1502 0.5019 0.8518
vn 0.4324 0.5019 0.7490
vn 0.6625 0.5019 0.5559
vn 0.8127 0.5019 0.2958
vn 0.8649 0.5019 0.0000
vn 0.8127 0.5019 -0.2958
vn 0.6625 0.5019 -0.5559
vn 0.4324 0.5019 -0.7490
vn 0.1502 0.5019 -0.8518
vn -0.1502 0.5019 -0.8518
vn -0.4324 0.5019 -0.7490
vn -0.6625 0.5019 -0.5559
vn -0.8127 0.5019 -0.2958
vn -0.8353 -0.4582 0.3040
vn -0.8889 -0.4582 0.0000
vn -0.8889 -0.4582 -0.0000
vn -0.6809 -0.4582 0.5713
vn -0.4444 -0.4582 0.7698
vn -0.1543 -0.4582 0.8754
vn 0.1543 -0.4582 0.8754
vn 0.4444 -0.4582 0.7698
vn 0.6809 -0.4582 0.5713
vn 0.8353 -0.4582 0.3040
vn 0.8889 -0.4582 0.0000
vn 0.8353 -0.4582 -0.3040
vn 0.6809 -0.4582 -0.5713
vn 0.4444 -0.4582 -0.7698
vn 0.1543 -0.4582 -0.8754
vn -0.1543 -0.4582 -0.8754
vn -0.4444 -0.4582 -0.7698
vn -0.6809 -0.4582 -0.5713
vn -0.8353 -0.4582 -0.3040
vn -0.0000 1.0000 0.0000
# 150 vertex normals

vt 0.7746 0.0054 1.0000
vt 0.8296 0.0054 1.0000
vt 0.8296 0.1037 1.0000
vt 0.7746 0.1037 1.0000
vt 0.8846 0.0054 1.0000
vt 0.8846 0.1037 1.0000
vt 0.9396 0.0054 1.0000
vt 0.9396 0.1037 1.0000
vt 0.9946 0.0054 1.0000
vt 0.9946 0.1037 1.0000
vt 0.0045 0.0054 1.0000
vt 0.0595 0.0054 1.0000
vt 0.0595 0.1037 1.0000
vt 0.0045 0.1037 1.0000
vt 0.1145 0.0054 1.0000
vt 0.1145 0.1037 1.0000
vt 0.1695 0.0054 1.0000
vt 0.1695 0.1037 1.0000
vt 0.2245 0.0054 1.0000
vt 0.2245 0.1037 1.0000
vt 0.2795 0.0054 1.0000
vt 0.2795 0.1037 1.0000
vt 0.3345 0.0054 1.0000
vt 0.3345 0.1037 1.0000
vt 0.3895 0.0054 1.0000
vt 0.3895 0.1037 1.0000
vt 0.4445 0.0054 1.0000
vt 0.4445 0.1037 1.0000
vt 0.4995 0.0054 1.0000
vt 0.4995 0.1037 1.0000
vt 0.5545 0.0054 1.0000
vt 0.5545 0.1037 1.0000
vt 0.6095 0.0054 1.0000
vt 0.6095 0.1037 1.0000
vt 0.6646 0.0054 1.0000
vt 0.6646 0.1037 1.0000
vt 0.7196 0.0054 1.0000
vt 0.7196 0.1037 1.0000
vt 0.8296 0.2020 1.0000
vt 0.7746 0.2020 1.0000
vt 0.8846 0.2020 1.0000
vt 0.9396 0.2020 1.0000
vt 0.9946 0.2020 1.0000
vt 0.0595 0.2020 1.0000
vt 0.0045 0.2020 1.0000
vt 0.1145 0.2020 1.0000
vt 0.1695 0.2020 1.0000
vt 0.2245 0.2020 1.0000
vt 0.2795 0.2020 1.0000
vt 0.3345 0.2020 1.0000
vt 0.3895 0.2020 1.0000
vt 0.4445 0.2020 1.0000
vt 0.4995 0.2020 1.0000
vt 0.5545 0.2020 1.0000
vt 0.6095 0.2020 1.0000
vt 0.6646 0.2020 1.0000
vt 0.7196 0.2020 1.0000
vt 0.8296 0.3003 1.0000
vt 0.7746 0.3003 1.0000
vt 0.8846 0.3003 1.0000
vt 0.9396 0.3003 1.0000
vt 0.9946 0.3003 1.0000
vt 0.0595 0.3003 1.0000
vt 0.0045 0.3003 1.0000
vt 0.1145 0.3003 1.0000
vt 0.1695 0.3003 1.0000
vt 0.2245 0.3003 1.0000
vt 0.2795 0.3003 1.0000
vt 0.3345 0.3003 1.0000
vt 0.3895 0.3003 1.0000
vt 0.4445 0.3003 1.0000
vt 0.4995 0.3003 1.0000
vt 0.5545 0.3003 1.0000
vt 0.6095 0.3003 1.0000
vt 0.6646 0.3003 1.0000
vt 0.7196 0.3003 1.0000
vt 0.8296 0.3986 1.0000
vt 0.7746 0.3986 1.0000
vt 0.8846 0.3986 1.0000
vt 0.9396 0.3986 1.0000
vt 0.9946 0.3986 1.0000
vt 0.0595 0.3986 1.0000
vt 0.0045 0.3986 1.0000
vt 0.1145 0.3986 1.0000
vt 0.1695 0.3986 1.0000
vt 0.2245 0.3986 1.0000
vt 0.2795 0.3986 1.0000
vt 0.3345 0.3986 1.0000
vt 0.3895 0.3986 1.0000
vt 0.4445 0.3986 1.0000
vt 0.4995 0.3986 1.0000
vt 0.5545 0.3986 1.0000
vt 0.6095 0.3986 1.0000
vt 0.6646 0.3986 1.0000
vt 0.7196 0.3986 1.0000
vt 0.8296 0.4969 1.0000
vt 0.7746 0.4969 1.0000
vt 0.8846 0.4969 1.0000
vt 0.9396 0.4969 1.0000
vt 0.9946 0.4969 1.0000
vt 0.0595 0.4969 1.0000
vt 0.0045 0.4969 1.0000
vt 0.1145 0.4969 1.0000
vt 0.1695 0.4969 1.0000
vt 0.2245 0.4969 1.0000
vt 0.2795 0.4969 1.0000
vt 0.3345 0.4969 1.0000
vt 0.3895 0.4969 1.0000
vt 0.4445 0.4969 1.0000
vt 0.4995 0.4969 1.0000
vt 0.5545 0.4969 1.0000
vt 0.6095 0.4969 1.0000
vt 0.6646 0.4969 1.0000
vt 0.7196 0.4969 1.0000
vt 0.9803 0.8334 0.0000
vt 0.9950 0.7486 0.0000
vt 0.9840 0.7486 0.0000
vt 0.9700 0.8296 0.0000
vt 0.9379 0.9081 0.0000
vt 0.9294 0.9009 0.0000
vt 0.8729 0.9634 0.0000
vt 0.8674 0.9538 0.0000
vt 0.7931 0.9929 0.0000
vt 0.7912 0.9819 0.0000
vt 0.7083 0.9929 0.0000
vt 0.7102 0.9819 0.0000
vt 0.6286 0.9634 0.0000
vt 0.6341 0.9538 0.0000
vt 0.5636 0.9081 0.0000
vt 0.5720 0.9009 0.0000
vt 0.5211 0.8334 0.0000
vt 0.5315 0.8296 0.0000
vt 0.5064 0.7486 0.0000
vt 0.5174 0.7486 0.0000
vt 0.5211 0.6637 0.0000
vt 0.5315 0.6676 0.0000
vt 0.5636 0.5891 0.0000
vt 0.5720 0.5963 0.0000
vt 0.6286 0.5337 0.0000
vt 0.6341 0.5434 0.0000
vt 0.7083 0.5043 0.0000
vt 0.7102 0.5153 0.0000
vt 0.7931 0.5043 0.0000
vt 0.7912 0.5153 0.0000
vt 0.8729 0.5337 0.0000
vt 0.8674 0.5434 0.0000
vt 0.9379 0.5891 0.0000
vt 0.9294 0.5963 0.0000
vt 0.9803 0.6637 0.0000
vt 0.9700 0.6676 0.0000
vt 0.4975 0.7486 0.0000
vt 0.4828 0.8334 0.0000
vt 0.4725 0.8296 0.0000
vt 0.4865 0.7486 0.0000
vt 0.4404 0.9081 0.0000
vt 0.4319 0.9009 0.0000
vt 0.3754 0.9634 0.0000
vt 0.3699 0.9538 0.0000
vt 0.2956 0.9929 0.0000
vt 0.2937 0.9819 0.0000
vt 0.2108 0.9929 0.0000
vt 0.2127 0.9819 0.0000
vt 0.1311 0.9634 0.0000
vt 0.1366 0.9538 0.0000
vt 0.0661 0.9081 0.0000
vt 0.0745 0.9009 0.0000
vt 0.0236 0.8334 0.0000
vt 0.0340 0.8296 0.0000
vt 0.0089 0.7486 0.0000
vt 0.0199 0.7486 0.0000
vt 0.0236 0.6637 0.0000
vt 0.0340 0.6676 0.0000
vt 0.0661 0.5891 0.0000
vt 0.0745 0.5963 0.0000
vt 0.1311 0.5337 0.0000
vt 0.1366 0.5434 0.0000
vt 0.2108 0.5043 0.0000
vt 0.2127 0.5153 0.0000
vt 0.2956 0.5043 0.0000
vt 0.2937 0.5153 0.0000
vt 0.3754 0.5337 0.0000
vt 0.3699 0.5434 0.0000
vt 0.4404 0.5891 0.0000
vt 0.4319 0.5963 0.0000
vt 0.4828 0.6637 0.0000
vt 0.4725 0.6676 0.0000
vt 0.4509 0.8216 0.0000
vt 0.4636 0.7486 0.0000
vt 0.4144 0.8859 0.0000
vt 0.3584 0.9336 0.0000
vt 0.2897 0.9589 0.0000
vt 0.2167 0.9589 0.0000
vt 0.1480 0.9336 0.0000
vt 0.0921 0.8859 0.0000
vt 0.0556 0.8216 0.0000
vt 0.0429 0.7486 0.0000
vt 0.0556 0.6755 0.0000
vt 0.0921 0.6113 0.0000
vt 0.1480 0.5636 0.0000
vt 0.2167 0.5382 0.0000
vt 0.2897 0.5382 0.0000
vt 0.3584 0.5636 0.0000
vt 0.4144 0.6113 0.0000
vt 0.4509 0.6755 0.0000
vt 0.9611 0.7486 0.0000
vt 0.9484 0.8216 0.0000
vt 0.9119 0.8859 0.0000
vt 0.8559 0.9336 0.0000
vt 0.7872 0.9589 0.0000
vt 0.7142 0.9589 0.0000
vt 0.6455 0.9336 0.0000
vt 0.5896 0.8859 0.0000
vt 0.5531 0.8216 0.0000
vt 0.5404 0.7486 0.0000
vt 0.5531 0.6755 0.0000
vt 0.5896 0.6113 0.0000
vt 0.6455 0.5636 0.0000
vt 0.7142 0.5382 0.0000
vt 0.7872 0.5382 0.0000
vt 0.8559 0.5636 0.0000
vt 0.9119 0.6113 0.0000
vt 0.9484 0.6755 0.0000
# 222 texture coords

g Cylinder01
s 8
f 1/1/1 2/2/2 3/3/3 4/4/4 
f 2/2/2 5/5/5 6/6/6 3/3/3 
f 5/5/5 7/7/7 8/8/8 6/6/6 
f 7/7/7 9/9/9 10/10/10 8/8/8 
f 9/11/9 11/12/11 12/13/12 10/14/10 
f 11/12/11 13/15/13 14/16/14 12/13/12 
f 13/15/13 15/17/15 16/18/16 14/16/14 
f 15/17/15 17/19/17 18/20/18 16/18/16 
f 17/19/17 19/21/19 20/22/20 18/20/18 
f 19/21/19 21/23/21 22/24/22 20/22/20 
f 21/23/21 23/25/23 24/26/24 22/24/22 
f 23/25/23 25/27/25 26/28/26 24/26/24 
f 25/27/25 27/29/27 28/30/28 26/28/26 
f 27/29/27 29/31/29 30/32/30 28/30/28 
f 29/31/29 31/33/31 32/34/32 30/32/30 
f 31/33/31 33/35/33 34/36/34 32/34/32 
f 33/35/33 35/37/35 36/38/36 34/36/34 
f 35/37/35 1/1/1 4/4/4 36/38/36 
f 4/4/4 3/3/3 37/39/37 38/40/38 
f 3/3/3 6/6/6 39/41/39 37/39/37 
f 6/6/6 8/8/8 40/42/40 39/41/39 
f 8/8/8 10/10/10 41/43/41 40/42/40 
f 10/14/10 12/13/12 42/44/42 41/45/41 
f 12/13/12 14/16/14 43/46/43 42/44/42 
f 14/16/14 16/18/16 44/47/44 43/46/43 
f 16/18/16 18/20/18 45/48/45 44/47/44 
f 18/20/18 20/22/20 46/49/46 45/48/45 
f 20/22/20 22/24/22 47/50/47 46/49/46 
f 22/24/22 24/26/24 48/51/48 47/50/47 
f 24/26/24 26/28/26 49/52/49 48/51/48 
f 26/28/26 28/30/28 50/53/50 49/52/49 
f 28/30/28 30/32/30 51/54/51 50/53/50 
f 30/32/30 32/34/32 52/55/52 51/54/51 
f 32/34/32 34/36/34 53/56/53 52/55/52 
f 34/36/34 36/38/36 54/57/54 53/56/53 
f 36/38/36 4/4/4 38/40/38 54/57/54 
f 38/40/38 37/39/37 55/58/55 56/59/56 
f 37/39/37 39/41/39 57/60/57 55/58/55 
f 39/41/39 40/42/40 58/61/58 57/60/57 
f 40/42/40 41/43/41 59/62/59 58/61/58 
f 41/45/41 42/44/42 60/63/60 59/64/59 
f 42/44/42 43/46/43 61/65/61 60/63/60 
f 43/46/43 44/47/44 62/66/62 61/65/61 
f 44/47/44 45/48/45 63/67/63 62/66/62 
f 45/48/45 46/49/46 64/68/64 63/67/63 
f 46/49/46 47/50/47 65/69/65 64/68/64 
f 47/50/47 48/51/48 66/70/66 65/69/65 
f 48/51/48 49/52/49 67/71/67 66/70/66 
f 49/52/49 50/53/50 68/72/68 67/71/67 
f 50/53/50 51/54/51 69/73/69 68/72/68 
f 51/54/51 52/55/52 70/74/70 69/73/69 
f 52/55/52 53/56/53 71/75/71 70/74/70 
f 53/56/53 54/57/54 72/76/72 71/75/71 
f 54/57/54 38/40/38 56/59/56 72/76/72 
f 56/59/56 55/58/55 73/77/73 74/78/74 
f 55/58/55 57/60/57 75/79/75 73/77/73 
f 57/60/57 58/61/58 76/80/76 75/79/75 
f 58/61/58 59/62/59 77/81/77 76/80/76 
f 59/64/59 60/63/60 78/82/78 77/83/77 
f 60/63/60 61/65/61 79/84/79 78/82/78 
f 61/65/61 62/66/62 80/85/80 79/84/79 
f 62/66/62 63/67/63 81/86/81 80/85/80 
f 63/67/63 64/68/64 82/87/82 81/86/81 
f 64/68/64 65/69/65 83/88/83 82/87/82 
f 65/69/65 66/70/66 84/89/84 83/88/83 
f 66/70/66 67/71/67 85/90/85 84/89/84 
f 67/71/67 68/72/68 86/91/86 85/90/85 
f 68/72/68 69/73/69 87/92/87 86/91/86 
f 69/73/69 70/74/70 88/93/88 87/92/87 
f 70/74/70 71/75/71 89/94/89 88/93/88 
f 71/75/71 72/76/72 90/95/90 89/94/89 
f 72/76/72 56/59/56 74/78/74 90/95/90 
f 74/78/74 73/77/73 91/96/91 92/97/92 
f 73/77/73 75/79/75 93/98/93 91/96/91 
f 75/79/75 76/80/76 94/99/94 93/98/93 
f 76/80/76 77/81/77 95/100/95 94/99/94 
f 77/83/77 78/82/78 96/101/96 95/102/95 
f 78/82/78 79/84/79 97/103/97 96/101/96 
f 79/84/79 80/85/80 98/104/98 97/103/97 
f 80/85/80 81/86/81 99/105/99 98/104/98 
f 81/86/81 82/87/82 100/106/100 99/105/99 
f 82/87/82 83/88/83 101/107/101 100/106/100 
f 83/88/83 84/89/84 102/108/102 101/107/101 
f 84/89/84 85/90/85 103/109/103 102/108/102 
f 85/90/85 86/91/86 104/110/104 103/109/103 
f 86/91/86 87/92/87 105/111/105 104/110/104 
f 87/92/87 88/93/88 106/112/106 105/111/105 
f 88/93/88 89/94/89 107/113/107 106/112/106 
f 89/94/89 90/95/90 108/114/108 107/113/107 
f 90/95/90 74/78/74 92/97/92 108/114/108 
s off
f 2/115/109 1/116/109 109/117/109 110/118/109 
f 5/119/109 2/115/109 110/118/109 111/120/109 
f 7/121/109 5/119/109 111/120/109 112/122/109 
f 9/123/109 7/121/109 112/122/109 113/124/109 
f 11/125/109 9/123/109 113/124/109 114/126/109 
f 13/127/109 11/125/109 114/126/109 115/128/109 
f 15/129/109 13/127/109 115/128/109 116/130/109 
f 17/131/109 15/129/109 116/130/109 117/132/109 
f 19/133/109 17/131/109 117/132/109 118/134/109 
f 21/135/109 19/133/109 118/134/109 119/136/109 
f 23/137/109 21/135/109 119/136/109 120/138/109 
f 25/139/109 23/137/109 120/138/109 121/140/109 
f 27/141/109 25/139/109 121/140/109 122/142/109 
f 29/143/109 27/141/109 122/142/109 123/144/109 
f 31/145/109 29/143/109 123/144/109 124/146/109 
f 33/147/109 31/145/109 124/146/109 125/148/109 
f 35/149/109 33/147/109 125/148/109 126/150/109 
f 1/116/109 35/149/109 126/150/109 109/117/109 
f 92/151/110 91/152/110 127/153/110 128/154/110 
f 91/152/111 93/155/111 129/156/111 127/153/111 
f 93/155/111 94/157/111 130/158/111 129/156/111 
f 94/157/112 95/159/112 131/160/112 130/158/112 
f 95/159/112 96/161/112 132/162/112 131/160/112 
f 96/161/112 97/163/112 133/164/112 132/162/112 
f 97/163/112 98/165/112 134/166/112 133/164/112 
f 98/165/112 99/167/112 135/168/112 134/166/112 
f 99/167/112 100/169/112 136/170/112 135/168/112 
f 100/169/112 101/171/112 137/172/112 136/170/112 
f 101/171/110 102/173/110 138/174/110 137/172/110 
f 102/173/112 103/175/112 139/176/112 138/174/112 
f 103/175/111 104/177/111 140/178/111 139/176/111 
f 104/177/112 105/179/112 141/180/112 140/178/112 
f 105/179/112 106/181/112 142/182/112 141/180/112 
f 106/181/112 107/183/112 143/184/112 142/182/112 
f 107/183/112 108/185/112 144/186/112 143/184/112 
f 108/185/112 92/151/112 128/154/112 144/186/112 
s 4
f 128/154/113 127/153/114 145/187/114 146/188/113 
f 127/153/114 129/156/115 147/189/115 145/187/114 
f 129/156/115 130/158/116 148/190/116 147/189/115 
f 130/158/116 131/160/117 149/191/117 148/190/116 
f 131/160/117 132/162/118 150/192/118 149/191/117 
f 132/162/118 133/164/119 151/193/119 150/192/118 
f 133/164/119 134/166/120 152/194/120 151/193/119 
f 134/166/120 135/168/121 153/195/121 152/194/120 
f 135/168/121 136/170/122 154/196/122 153/195/121 
f 136/170/122 137/172/123 155/197/123 154/196/122 
f 137/172/123 138/174/124 156/198/124 155/197/123 
f 138/174/124 139/176/125 157/199/125 156/198/124 
f 139/176/125 140/178/126 158/200/126 157/199/125 
f 140/178/126 141/180/127 159/201/127 158/200/126 
f 141/180/127 142/182/128 160/202/128 159/201/127 
f 142/182/128 143/184/129 161/203/129 160/202/128 
f 143/184/129 144/186/130 162/204/130 161/203/129 
f 144/186/130 128/154/113 146/188/113 162/204/130 
f 110/118/131 109/117/132 163/205/133 164/206/131 
f 111/120/134 110/118/131 164/206/131 165/207/134 
f 112/122/135 111/120/134 165/207/134 166/208/135 
f 113/124/136 112/122/135 166/208/135 167/209/136 
f 114/126/137 113/124/136 167/209/136 168/210/137 
f 115/128/138 114/126/137 168/210/137 169/211/138 
f 116/130/139 115/128/138 169/211/138 170/212/139 
f 117/132/140 116/130/139 170/212/139 171/213/140 
f 118/134/141 117/132/140 171/213/140 172/214/141 
f 119/136/142 118/134/141 172/214/141 173/215/142 
f 120/138/143 119/136/142 173/215/142 174/216/143 
f 121/140/144 120/138/143 174/216/143 175/217/144 
f 122/142/145 121/140/144 175/217/144 176/218/145 
f 123/144/146 122/142/145 176/218/145 177/219/146 
f 124/146/147 123/144/146 177/219/146 178/220/147 
f 125/148/148 124/146/147 178/220/147 179/221/148 
f 126/150/149 125/148/148 179/221/148 180/222/149 
f 109/117/132 126/150/149 180/222/149 163/205/133 
s off
f 147/189/111 148/190/111 149/191/111 146/188/111 
f 149/191/111 150/192/111 151/193/111 153/195/111 
f 151/193/110 152/194/110 153/195/110 
f 153/195/110 154/196/110 155/197/110 157/199/110 
f 155/197/150 156/198/150 157/199/150 
f 157/199/111 158/200/111 159/201/111 161/203/111 
f 159/201/112 160/202/112 161/203/112 
f 153/195/112 157/199/112 161/203/112 149/191/112 
f 161/203/111 162/204/111 146/188/111 149/191/111 
f 145/187/150 147/189/150 146/188/150 
f 180/222/109 179/221/109 178/220/109 164/206/109 
f 178/220/109 177/219/109 176/218/109 174/216/109 
f 176/218/109 175/217/109 174/216/109 
f 174/216/109 173/215/109 172/214/109 170/212/109 
f 172/214/109 171/213/109 170/212/109 
f 170/212/109 169/211/109 168/210/109 166/208/109 
f 168/210/109 167/209/109 166/208/109 
f 174/216/109 170/212/109 166/208/109 178/220/109 
f 166/208/109 165/207/109 164/206/109 178/220/109 
f 163/205/109 180/222/109 164/206/109 
# 174 polygons - 8 triangles

